<svg width="271" height="264" viewBox="0 0 512 512" xml:space="preserve" xmlns="http://www.w3.org/2000/svg" enable-background="new 0 0 512 512"><g enable-background="new"><path d="m91.809 117.07 30.784 333.509 133.406 35.922 133.403-35.922 30.789-333.509z" fill-rule="evenodd" clip-rule="evenodd" fill="#55569e" class="fill-1758a7"></path></g><g enable-background="new"><path d="M255.997 144.084v313.768l.301.081 107.959-29.07 24.918-284.779z" fill-rule="evenodd" clip-rule="evenodd" fill="#55569e" class="fill-379ad6"></path></g><g enable-background="new"><path d="m255.623 372.537-.072.021-44.57-11.361-2.701-32.718h-41.419l5.402 63.165 83.738 24.993V372.43z" fill-rule="evenodd" clip-rule="evenodd" fill="#ffffff" class="fill-e8e8e7"></path></g><g enable-background="new"><path d="M256.001 266.782v40.129h.119l49.502.054-3.177 52.454-46.325 13.051-.119.034v44.087l.119.036.033.01 83.961-24.523 10.893-125.332z" fill-rule="evenodd" clip-rule="evenodd" fill="#ffffff" class="fill-fbfbfa"></path></g><g enable-background="new"><path d="m161.002 266.782 3.152 40.087.005.062 91.842.006v-40.155z" fill-rule="evenodd" clip-rule="evenodd" fill="#ffffff" class="fill-e5e4e2"></path></g><g enable-background="new"><path d="M161.008 266.782h94.76l.233-.101v-40.064z" fill-rule="evenodd" clip-rule="evenodd" fill="#ffffff" class="fill-eeeeee"></path></g><g enable-background="new"><path d="m261.553 224.667-5.552 2.325v39.781l97.954-42.106z" fill-rule="evenodd" clip-rule="evenodd" fill="#ffffff" class="fill-ffffff"></path></g><g enable-background="new"><path d="m152.196 184.515 4.964 40.152h98.841v-40.152z" fill-rule="evenodd" clip-rule="evenodd" fill="#ffffff" class="fill-e7e7e6"></path></g><g enable-background="new"><path d="m256.001 224.667 101.842-40.152H256.001v40.152zm.027 0h97.76l4.056-40.152-101.816 40.152z" fill-rule="evenodd" clip-rule="evenodd" fill="#ffffff" class="fill-f8f8f7"></path></g><g enable-background="new"><path d="M158.564 87.892h50.683V68.07h-28.961V48.22h28.961V26.499h-50.683v61.393zm72.343-39.671c6.781 6.781 10.317 10.026 20.125 19.835-5.732 0-20.125.021-20.125.019v19.817h50.687V68.07l-20.246-19.85h20.246V26.499h-50.687v21.722zm122.529-21.722h-50.69v21.722c6.781 6.781 10.319 10.026 20.127 19.835-5.73 0-20.127.021-20.127.019v19.817h50.69V68.07l-20.247-19.85h20.247V26.499z" fill-rule="evenodd" clip-rule="evenodd" fill="#ffffff" class="fill-1b1b1b"></path></g></svg>